# xmcd
#
# Track frame offsets:
#	150
#	14630
#	34090
#	46025
#	62382
#	76472
#	94845
#	110230
#	126155
#	146457
#	161512
#	180422
#	194515
#	209127
#	228100
#	246027
#	266532
#	279127
#	286622
#	305075
#	305707
#
# Disc length: 4314 seconds
#
# Revision: 2
# Processed by: cddbd v1.5.2PL0 Copyright (c) Steve Scherf et al.
# Submitted via: EZCDAudioConverter 7.1.8.1
#
DISCID=2710d815
DTITLE=TRIBUNAL FUNK DE ANIVERSÁRIO 1 ANO DE SUCESSO [CD 10537.00) M.JAM RECOR
DTITLE=DS -2000
DYEAR=2000
DGENRE=FUNK ANTIGO BAIXADA SANTISTA
TTITLE0=RENATINHO E ALEMÃO - PERIGOSO
TTITLE1=TOTÔ E RAFAEL - PEGA X9
TTITLE2=AS PAMPA E ALEMÃO - COMANDO HUMAITÁ
TTITLE3=WILLIAN E CARLINHOS - TRIBUNAL FUNK NA MENTE
TTITLE4=ZINHO E MONSTRINHO - PÉ
TTITLE5=MARINHO E CARLINHOS - MENINA LINDA
TTITLE6=DECO E DOG - AO NOSSO HUMAITÁ
TTITLE7=CLAYTON E MARCELINHO - SAIBA TIRAR ONDA
TTITLE8=BARRIGA E GALO - COMPASSO
TTITLE9=ZOOM E SESSÉU - GERERÉ 2000
TTITLE10=CLÁUDIO E RATINHO - COMANDO
TTITLE11=DUNGA E MARCELINHO - BONDE DO AMOR
TTITLE12=MANDIOKA - RÁDIO FAVELA
TTITLE13=COSME E DINGO - LAGALIZE 2000
TTITLE14=CARECA E PIXOTE - VIROU MANIA
TTITLE15=MASCOTE,NANI E BINA - REBOLA BOLA
TTITLE16=BARRIGA E MR CATRA - COMPLEXO DO ESQUADRÃO 2
TTITLE17=MR CATRA E BARRIGA - SIMPÁTICO
TTITLE18=TESTA E AIRES - TÔ LIGEIRO
TTITLE19=TRIBUNAL FUNK - VINHETA
TTITLE20=MOVIMENTO FUNK CLUBE - SUPER POPOZÃO REMIX
EXTD=
EXTT0=
EXTT1=
EXTT2=
EXTT3=
EXTT4=
EXTT5=
EXTT6=
EXTT7=
EXTT8=
EXTT9=
EXTT10=
EXTT11=
EXTT12=
EXTT13=
EXTT14=
EXTT15=
EXTT16=
EXTT17=
EXTT18=
EXTT19=
EXTT20=
PLAYORDER=
